# xmcd
#
# Track frame offsets:
#	150
#	20222
#	38260
#	53980
#	74462
#	97090
#	118182
#	136060
#	154182
#	175242
#	195692
#	219307
#	240487
#	258077
#
# Disc length: 3660 seconds
#
# Revision: 2
# Processed by: cddbd v1.4b42PL1 Copyright (c) Steve Scherf et al.
# Submitted via: EasyCDDAExtractor 4.5.0.2
#
DISCID=c10e4a0e
DTITLE=Amy Sky - Cool Rain
DYEAR=1996
DGENRE=Country
TTITLE0=Don't Leave Me Alone
TTITLE1=If My Heart Had Wings
TTITLE2=Til You Love Somebody
TTITLE3=I Will Take Care Of You
TTITLE4=Wall Against The Waters
TTITLE5=Cool Rain
TTITLE6=Colorado
TTITLE7=Everything
TTITLE8=Run Away
TTITLE9=Unbreakable Heart
TTITLE10=Soledad
TTITLE11=Til Tomorrow
TTITLE12=Easy Terms
TTITLE13=Tell Me It's Not True
EXTD=
EXTT0=
EXTT1=
EXTT2=
EXTT3=
EXTT4=
EXTT5=
EXTT6=
EXTT7=
EXTT8=
EXTT9=
EXTT10=
EXTT11=
EXTT12=1998
EXTT13=1998
PLAYORDER=
